# xmcd
#
# Track frame offsets:
#	150
#	15084
#	28327
#	41817
#	56177
#	70060
#	85859
#	98713
#	113356
#	126784
#	140681
#	156858
#	171008
#
# Disc length: 2539 seconds
#
# Revision: 1
# Processed by: cddbd v1.5.2PL0 Copyright (c) Steve Scherf et al.
# Submitted via: audiograbber 1.83.01
#
DISCID=a509e90d
DTITLE=Drifters - Ett liv med dig
DYEAR=2007
DGENRE=Dansband
TTITLE0=Ett liv med dig
TTITLE1=Vem kan älska dig som jag
TTITLE2=Lova mig
TTITLE3=Love is in your eyes
TTITLE4=Jag vill sjunga ut min glädje
TTITLE5=Vart än vi går
TTITLE6=Sunny day
TTITLE7=Jag kan minnas
TTITLE8=Låt kärleken få födas
TTITLE9=Don't slam the door
TTITLE10=Låt oss kasta loss
TTITLE11=Så nära
TTITLE12=Ännu en dag
EXTD=
EXTT0=
EXTT1=
EXTT2=
EXTT3=
EXTT4=
EXTT5=
EXTT6=
EXTT7=
EXTT8=
EXTT9=
EXTT10=
EXTT11=
EXTT12=
PLAYORDER=
